<svg width="18" height="18" viewBox="0 0 18 18" fill="none" xmlns="http://www.w3.org/2000/svg">
<path d="M14 15C14.2761 15 14.5 15.2239 14.5 15.5C14.5 15.7761 14.2761 16 14 16H4C3.72386 16 3.5 15.7761 3.5 15.5C3.5 15.2239 3.72386 15 4 15H14ZM15 2C15.5523 2 16 2.44772 16 3V13C16 13.5523 15.5523 14 15 14H3C2.44772 14 2 13.5523 2 13V3C2 2.44772 2.44772 2 3 2H15ZM5.5 7C5.22386 7 5 7.22386 5 7.5V11.5C5 11.7761 5.22386 12 5.5 12C5.77614 12 6 11.7761 6 11.5V7.5C6 7.22386 5.77614 7 5.5 7ZM9 4C8.72386 4 8.5 4.22386 8.5 4.5V11.5C8.5 11.7761 8.72386 12 9 12C9.27614 12 9.5 11.7761 9.5 11.5V4.5C9.5 4.22386 9.27614 4 9 4ZM12.5 6C12.2239 6 12 6.22386 12 6.5V11.5C12 11.7761 12.2239 12 12.5 12C12.7761 12 13 11.7761 13 11.5V6.5C13 6.22386 12.7761 6 12.5 6Z" fill="currentColor"/>
</svg>
