<svg width="18" height="18" viewBox="0 0 18 18" fill="none" xmlns="http://www.w3.org/2000/svg">
<path d="M12 1.5C12.2761 1.5 12.5 1.72386 12.5 2V3H13L13.2041 3.01074C14.2128 3.113 15 3.96435 15 5V5.5H16C16.2761 5.5 16.5 5.72386 16.5 6C16.5 6.27614 16.2761 6.5 16 6.5H15V8.5H16C16.2761 8.5 16.5 8.72386 16.5 9C16.5 9.27614 16.2761 9.5 16 9.5H15V11.5H16C16.2761 11.5 16.5 11.7239 16.5 12C16.5 12.2761 16.2761 12.5 16 12.5H15V13L14.9893 13.2041C14.8938 14.1457 14.1457 14.8938 13.2041 14.9893L13 15H12.5V16C12.5 16.2761 12.2761 16.5 12 16.5C11.7239 16.5 11.5 16.2761 11.5 16V15H9.5V16C9.5 16.2761 9.27614 16.5 9 16.5C8.72386 16.5 8.5 16.2761 8.5 16V15H6.5V16C6.5 16.2761 6.27614 16.5 6 16.5C5.72386 16.5 5.5 16.2761 5.5 16V15H5C3.96435 15 3.113 14.2128 3.01074 13.2041L3 13V12.5H2C1.72386 12.5 1.5 12.2761 1.5 12C1.5 11.7239 1.72386 11.5 2 11.5H3V9.5H2C1.72386 9.5 1.5 9.27614 1.5 9C1.5 8.72386 1.72386 8.5 2 8.5H3V6.5H2C1.72386 6.5 1.5 6.27614 1.5 6C1.5 5.72386 1.72386 5.5 2 5.5H3V5C3 3.89543 3.89543 3 5 3H5.5V2C5.5 1.72386 5.72386 1.5 6 1.5C6.27614 1.5 6.5 1.72386 6.5 2V3H8.5V2C8.5 1.72386 8.72386 1.5 9 1.5C9.27614 1.5 9.5 1.72386 9.5 2V3H11.5V2C11.5 1.72386 11.7239 1.5 12 1.5ZM5 13H13V5H5V13ZM12 12H6V6H12V12Z" fill="currentColor"/>
</svg>
