<svg width="18" height="18" viewBox="0 0 18 18" fill="none" xmlns="http://www.w3.org/2000/svg">
<path d="M14 1C14.5523 1 15 1.44772 15 2V16C15 16.5523 14.5523 17 14 17H4C3.44772 17 3 16.5523 3 16V2C3 1.44772 3.44772 1 4 1H14ZM6.5 13C6.22386 13 6 13.2239 6 13.5C6 13.7761 6.22386 14 6.5 14H9.5C9.77614 14 10 13.7761 10 13.5C10 13.2239 9.77614 13 9.5 13H6.5ZM6.5 11C6.22386 11 6 11.2239 6 11.5C6 11.7761 6.22386 12 6.5 12H11.5C11.7761 12 12 11.7761 12 11.5C12 11.2239 11.7761 11 11.5 11H6.5ZM9 3C7.34315 3 6 4.34315 6 6C6 7.65685 7.34315 9 9 9C9.64777 9 10.246 8.79244 10.7363 8.44336L11.1465 8.85352C11.3417 9.04878 11.6583 9.04878 11.8535 8.85352C12.0488 8.65825 12.0488 8.34175 11.8535 8.14648L11.4434 7.73633C11.7924 7.24598 12 6.64777 12 6C12 4.34315 10.6569 3 9 3ZM9 4C10.1046 4 11 4.89543 11 6C11 7.10457 10.1046 8 9 8C7.89543 8 7 7.10457 7 6C7 4.89543 7.89543 4 9 4Z" fill="currentColor"/>
</svg>
