<svg width="18" height="18" viewBox="0 0 18 18" fill="none" xmlns="http://www.w3.org/2000/svg">
<path d="M8.34912 1.55823C8.72361 1.23724 9.27639 1.23724 9.65088 1.55823L15.5981 6.65588C15.8493 6.87118 15.9784 7.1972 15.9419 7.526L15.0991 15.11C15.0429 15.6164 14.6145 15.9996 14.105 15.9996H3.89502C3.38553 15.9996 2.95714 15.6164 2.90088 15.11L2.05811 7.526C2.02157 7.1972 2.15067 6.87118 2.40186 6.65588L8.34912 1.55823ZM9.00049 9.99963C7.89603 9.99963 7.00066 10.8952 7.00049 11.9996V13.9996C7.00049 14.5519 7.4482 14.9996 8.00049 14.9996H10.0005C10.5526 14.9994 11.0005 14.5518 11.0005 13.9996V11.9996C11.0003 10.8953 10.1048 9.99985 9.00049 9.99963Z" fill="currentColor"/>
</svg>
