<svg width="18" height="18" viewBox="0 0 18 18" fill="none" xmlns="http://www.w3.org/2000/svg">
<path d="M3.48824 2.05228L8.5193 2.7155C8.8533 2.75975 9.19159 2.75975 9.5256 2.7155C12.0632 2.31773 13.594 2.0968 14.5567 2.00817C14.7401 1.98739 14.9259 2.00636 15.1015 2.06384C15.2771 2.12132 15.4386 2.21598 15.5752 2.3415C15.7117 2.46702 15.8203 2.62053 15.8935 2.79178C15.9667 2.96303 16.003 3.14809 15.9998 3.33461V13.6349C16.0032 13.9512 15.895 14.2584 15.6946 14.5015C15.4942 14.7446 15.2147 14.9076 14.9062 14.9613L9.61289 15.9337C9.20926 16.0221 8.79158 16.0221 8.38796 15.9337L3.09461 14.9613C2.78958 14.9001 2.51455 14.735 2.31545 14.4936C2.11635 14.2522 2.00522 13.9491 2.00062 13.6349V3.37871C1.99475 3.18736 2.03072 2.99705 2.10597 2.82134C2.18121 2.64564 2.29388 2.48887 2.43594 2.3622C2.578 2.23553 2.74596 2.14208 2.92784 2.08851C3.10973 2.03494 3.30108 2.02257 3.48824 2.05228ZM6.20038 4.88157H5.9381C5.41764 4.88688 4.91998 5.09816 4.55194 5.47007C4.1839 5.84198 3.97482 6.34487 3.96956 6.87081V7.04764C3.97786 7.6195 4.20636 8.1656 4.60656 8.57001C5.00676 8.97443 5.54717 9.20533 6.11309 9.21371C6.3528 9.2167 6.59071 9.17159 6.81305 9.08098L7.81934 10.6284C7.62667 10.8916 7.50178 11.1992 7.45593 11.5233C7.41007 11.8474 7.44468 12.178 7.55665 12.4853C7.63534 12.685 7.75352 12.8665 7.90396 13.0185C8.0544 13.1705 8.23394 13.2899 8.4316 13.3694C8.69194 13.4901 8.97787 13.5436 9.2637 13.525C9.54953 13.5064 9.82632 13.4163 10.0692 13.2629C10.3121 13.1095 10.5135 12.8975 10.6552 12.6461C10.797 12.3946 10.8747 12.1114 10.8815 11.8221C10.8815 11.5566 10.8378 11.4243 10.8378 11.2475L12.3691 9.96555C12.5774 10.0519 12.8002 10.097 13.0254 10.0983C13.2458 10.0965 13.4621 10.0378 13.6537 9.92758C13.8452 9.81741 14.0057 9.6595 14.1197 9.46891C14.2338 9.27831 14.2977 9.06138 14.3052 8.83877C14.3128 8.61617 14.2639 8.39531 14.163 8.19724C14.047 7.96921 13.8633 7.78357 13.6377 7.66634C13.442 7.56159 13.2229 7.50985 13.0016 7.51617C12.7802 7.52249 12.5643 7.58664 12.3749 7.70238C12.1854 7.81812 12.0288 7.9815 11.9204 8.17658C11.8121 8.37167 11.7555 8.5918 11.7564 8.81553C11.7493 8.94964 11.764 9.08402 11.8001 9.21329L10.2688 10.4952C9.96271 10.2354 9.57496 10.0943 9.1752 10.0974C8.99573 10.0835 8.81558 10.1137 8.65024 10.1857L7.64394 8.63828C8.04027 8.22312 8.26016 7.66775 8.25661 7.09091C8.2703 6.80809 8.22745 6.52537 8.13063 6.25965C8.03381 5.99393 7.885 5.75065 7.69308 5.54433C7.50116 5.338 7.27008 5.17287 7.01361 5.05879C6.75715 4.9447 6.48057 4.884 6.20038 4.88032V4.88157Z" fill="currentColor"/>
</svg>
