<svg width="18" height="18" viewBox="0 0 18 18" fill="none" xmlns="http://www.w3.org/2000/svg">
<path d="M3.29882 13.5027C3.00221 13.3267 2.75358 13.0628 2.57958 12.7393C2.40559 12.4158 2.3128 12.0449 2.31117 11.6663V11.6521C2.30974 10.5331 2.52957 9.42786 2.95459 8.41714C3.37961 7.40643 3.99908 6.51578 4.76775 5.81025C4.77576 5.80337 4.78112 5.79327 4.78273 5.78204C4.78434 5.77081 4.78207 5.75932 4.77639 5.74993L3.56262 3.56489C3.53466 3.515 3.51907 3.45755 3.51746 3.39852C3.51584 3.3395 3.52828 3.28107 3.55346 3.22933C3.57864 3.17758 3.61565 3.13442 3.66062 3.10435C3.70559 3.07427 3.75688 3.05838 3.80914 3.05833C3.84744 3.06099 3.88472 3.07328 3.91827 3.09431C3.95182 3.11533 3.98079 3.14457 4.00306 3.17987L5.21997 5.36846C5.22284 5.37372 5.22663 5.37827 5.23109 5.38185C5.23556 5.38543 5.24062 5.38795 5.24596 5.38928C5.25131 5.3906 5.25684 5.3907 5.26222 5.38956C5.2676 5.38842 5.27272 5.38607 5.27728 5.38265C6.36825 4.56114 7.64996 4.12278 8.96098 4.12278C10.272 4.12278 11.5537 4.56114 12.6447 5.38265C12.654 5.38932 12.6652 5.39157 12.6759 5.38891C12.6867 5.38625 12.696 5.3789 12.702 5.36846L13.9322 3.16035C13.9508 3.12319 13.9758 3.09066 14.0058 3.06475C14.0358 3.03884 14.0701 3.02008 14.1067 3.00962C14.1433 2.99916 14.1814 2.9972 14.2187 3.00388C14.256 3.01056 14.2917 3.02573 14.3236 3.04847C14.3556 3.07121 14.3831 3.10105 14.4045 3.13617C14.426 3.17129 14.4409 3.21096 14.4483 3.25279C14.4558 3.29461 14.4556 3.3377 14.4479 3.37946C14.4401 3.42122 14.425 3.46076 14.4033 3.49569L13.1471 5.74904C13.1412 5.75825 13.1387 5.76973 13.1401 5.78102C13.1416 5.79231 13.1469 5.80249 13.155 5.80937C13.9242 6.51476 14.5442 7.40543 14.9698 8.4163C15.3954 9.42716 15.6157 10.5327 15.6147 11.6521V11.6663C15.614 12.045 15.5217 12.4162 15.3478 12.7399C15.1738 13.0636 14.9249 13.3273 14.6278 13.5027C12.8734 14.5084 10.9305 15.0217 8.96333 14.9993C6.9962 15.0217 5.05322 14.5084 3.29882 13.5027ZM4.39797 10.8945C4.35462 11.1361 4.39779 11.3872 4.51802 11.5929C4.63825 11.7986 4.82573 11.9421 5.03939 11.9919C6.11009 12.2328 7.19745 12.367 8.28893 12.3929C8.26269 12.2673 8.26181 12.1366 8.28635 12.0106C8.31088 11.8846 8.36021 11.7664 8.43067 11.6649C8.50113 11.5634 8.59092 11.4811 8.69337 11.4241C8.79582 11.3671 8.90831 11.3369 9.0225 11.3357C9.13668 11.3346 9.24964 11.3625 9.35298 11.4174C9.45632 11.4723 9.5474 11.5527 9.61947 11.6528C9.69153 11.7529 9.74273 11.8701 9.76927 11.9956C9.79581 12.1211 9.79701 12.2517 9.77277 12.3778C10.7967 12.3314 11.8154 12.1883 12.8182 11.9502C12.9251 11.9257 13.0265 11.8775 13.1168 11.8084C13.207 11.7392 13.2842 11.6505 13.3438 11.5473C13.4034 11.4442 13.4443 11.3286 13.4641 11.2075C13.4838 11.0863 13.4821 10.9619 13.4589 10.8415C13.4358 10.7211 13.3917 10.6071 13.3292 10.5062C13.2667 10.4052 13.1871 10.3193 13.095 10.2534C13.0029 10.1875 12.9001 10.1429 12.7926 10.1223C12.6851 10.1017 12.575 10.1054 12.4688 10.1333C11.2788 10.4137 10.0659 10.5508 8.85028 10.5423C7.68368 10.5482 6.51943 10.4234 5.37463 10.1697C5.16092 10.1207 4.93875 10.1695 4.75684 10.3054C4.57493 10.4413 4.44813 10.6531 4.40425 10.8945H4.39797ZM15.7764 10.3232C15.665 9.44932 15.6281 8.73339 16.0347 8.66863C16.4414 8.60387 16.8615 9.25858 16.9729 10.1324C17.0844 11.0063 16.841 11.7683 16.4336 11.834C16.4166 11.8354 16.3995 11.8354 16.3825 11.834C16.0143 11.8384 15.8856 11.1597 15.7796 10.3232H15.7764ZM1.56297 11.834C1.15628 11.7639 0.920752 10.9992 1.02439 10.1289C1.12802 9.25858 1.55511 8.59944 1.9618 8.66508C2.36848 8.73073 2.33158 9.45021 2.22088 10.324C2.11411 11.1597 1.98535 11.8384 1.614 11.8393C1.59689 11.8389 1.57984 11.8371 1.56297 11.834Z" fill="currentColor"/>
</svg>
