<svg width="32" height="32" viewBox="0 0 32 32" fill="none" xmlns="http://www.w3.org/2000/svg">
  <rect width="32" height="32" rx="8" fill="white" fill-opacity="0.96"/>
  <path d="M19.0579 9.09827L15.8082 11.0706L12.9421 9.09827L6 13.3109V21.7368L12.9421 25.9498L16.1918 24.2105L19.0579 25.9498L26 21.7368V13.3109L19.0579 9.09827ZM12.9421 24.705L7.02568 21.1148V13.9336L12.9421 10.3433L14.7822 11.6929L12.1157 13.3112V21.7371L15.1661 23.5882L12.9421 24.705ZM13.1417 20.0549H18.8586V21.3475L16.1918 22.9658L13.1417 21.1148V20.0549ZM13.1417 18.9765V16.5097H18.8586V18.9765H13.1417ZM18.8586 15.4312H13.1417V13.9336L15.8082 12.3153L18.8586 14.1663V15.4312ZM24.9743 21.1148L19.0579 24.705L17.2178 23.5882L19.8846 21.9699V13.544L16.8342 11.6929L19.0582 10.3433L24.9746 13.9336L24.9743 21.1148Z" fill="#146AE1"/>
  <path d="M14.573 7.86376L13.3172 5.51634C13.3835 5.37271 13.4218 5.21177 13.4218 5.04137C13.4218 4.43853 12.9568 3.94971 12.3832 3.94971C11.8097 3.94971 11.3447 4.43853 11.3447 5.04137C11.3447 5.64421 11.7792 6.0987 12.326 6.1302L13.5704 8.45652C13.6759 8.65401 13.8713 8.76487 14.0723 8.76487C14.1676 8.76487 14.2647 8.73999 14.3537 8.68708C14.6306 8.5233 14.7289 8.15479 14.573 7.86376Z" fill="#FDC23A"/>
  <path d="M17.4268 7.86376L18.6826 5.51634C18.6164 5.37271 18.5781 5.21177 18.5781 5.04137C18.5781 4.43853 19.0431 3.94971 19.6169 3.94971C20.1904 3.94971 20.6555 4.43853 20.6555 5.04137C20.6555 5.62405 20.221 6.0987 19.6742 6.1302L18.4297 8.45652C18.3243 8.65401 18.1289 8.76487 17.9278 8.76487C17.8325 8.76487 17.7355 8.73999 17.6465 8.68708C17.3696 8.5233 17.2713 8.15479 17.4271 7.86376H17.4268Z" fill="#FDC23A"/>
  </svg>
  